solid OpenSCAD_Model
  facet normal -1 0 0
    outer loop
      vertex -2 -2 13
      vertex -2 -2 17
      vertex -2 5 13
    endloop
  endfacet
  facet normal -1 0 0
    outer loop
      vertex -2 5 13
      vertex -2 -2 17
      vertex -2 5 17
    endloop
  endfacet
  facet normal 0 -1 0
    outer loop
      vertex -2 -2 17
      vertex -2 -2 13
      vertex 5 -2 13
    endloop
  endfacet
  facet normal 0 -1 0
    outer loop
      vertex 5 -2 17
      vertex -2 -2 17
      vertex 5 -2 13
    endloop
  endfacet
  facet normal 0 0 -1
    outer loop
      vertex 5 0 13
      vertex 5 -2 13
      vertex 0 0 13
    endloop
  endfacet
  facet normal 0 0 -1
    outer loop
      vertex -2 -2 13
      vertex -2 5 13
      vertex 0 0 13
    endloop
  endfacet
  facet normal 0 0 -1
    outer loop
      vertex -2 -2 13
      vertex 0 0 13
      vertex 5 -2 13
    endloop
  endfacet
  facet normal 0 0 -1
    outer loop
      vertex 0 0 13
      vertex -2 5 13
      vertex 0 5 13
    endloop
  endfacet
  facet normal 0 1 0
    outer loop
      vertex -2 5 13
      vertex -2 5 17
      vertex 0 5 13
    endloop
  endfacet
  facet normal 0 1 0
    outer loop
      vertex 0 5 15
      vertex -2 5 17
      vertex 0 5 17
    endloop
  endfacet
  facet normal 0 1 0
    outer loop
      vertex 0 5 13
      vertex -2 5 17
      vertex 0 5 15
    endloop
  endfacet
  facet normal 0 0 1
    outer loop
      vertex 0 0 17
      vertex -2 -2 17
      vertex 5 -2 17
    endloop
  endfacet
  facet normal 0 0 1
    outer loop
      vertex 0 0 17
      vertex 0 5 17
      vertex -2 5 17
    endloop
  endfacet
  facet normal 0 0 1
    outer loop
      vertex -2 5 17
      vertex -2 -2 17
      vertex 0 0 17
    endloop
  endfacet
  facet normal 0 0 1
    outer loop
      vertex 5 0 17
      vertex 0 0 17
      vertex 5 -2 17
    endloop
  endfacet
  facet normal 1 0 0
    outer loop
      vertex 5 -2 17
      vertex 5 -2 13
      vertex 5 0 13
    endloop
  endfacet
  facet normal 1 0 0
    outer loop
      vertex 5 0 17
      vertex 5 -2 17
      vertex 5 0 15
    endloop
  endfacet
  facet normal 1 0 0
    outer loop
      vertex 5 0 15
      vertex 5 -2 17
      vertex 5 0 13
    endloop
  endfacet
  facet normal 0.591784 -0.806096 0
    outer loop
      vertex 5 0 13
      vertex 5 0 0
      vertex 96.4 67.1 0
    endloop
  endfacet
  facet normal 0.591784 -0.806096 0
    outer loop
      vertex 5 0 15
      vertex 5 0 13
      vertex 96.4 67.1 15
    endloop
  endfacet
  facet normal 0.591784 -0.806096 0
    outer loop
      vertex 96.4 67.1 15
      vertex 5 0 13
      vertex 96.4 67.1 0
    endloop
  endfacet
  facet normal 0 -1 0
    outer loop
      vertex 0 0 13
      vertex 0 0 0
      vertex 5 0 0
    endloop
  endfacet
  facet normal 0 -1 0
    outer loop
      vertex 5 0 13
      vertex 0 0 13
      vertex 5 0 0
    endloop
  endfacet
  facet normal -1 0 0
    outer loop
      vertex 0 0 0
      vertex 0 0 13
      vertex 0 5 0
    endloop
  endfacet
  facet normal -1 0 0
    outer loop
      vertex 0 5 0
      vertex 0 0 13
      vertex 0 5 13
    endloop
  endfacet
  facet normal -0.591784 0.806096 0
    outer loop
      vertex 0 5 0
      vertex 0 5 13
      vertex 91.4 72.1 0
    endloop
  endfacet
  facet normal -0.591784 0.806096 0
    outer loop
      vertex 91.4 72.1 0
      vertex 0 5 13
      vertex 0 5 15
    endloop
  endfacet
  facet normal -0.591784 0.806096 0
    outer loop
      vertex 91.4 72.1 0
      vertex 0 5 15
      vertex 91.4 72.1 15
    endloop
  endfacet
  facet normal 1 0 0
    outer loop
      vertex 0 5 15
      vertex 0 5 17
      vertex 0 0 17
    endloop
  endfacet
  facet normal 1 0 0
    outer loop
      vertex 0 0 15
      vertex 0 5 15
      vertex 0 0 17
    endloop
  endfacet
  facet normal 0 0 1
    outer loop
      vertex 0 5 15
      vertex 0 0 15
      vertex 5 0 15
    endloop
  endfacet
  facet normal 0 0 1
    outer loop
      vertex 96.4 72.1 15
      vertex 0 5 15
      vertex 96.4 67.1 15
    endloop
  endfacet
  facet normal 0 0 1
    outer loop
      vertex 96.4 67.1 15
      vertex 0 5 15
      vertex 5 0 15
    endloop
  endfacet
  facet normal 0 0 1
    outer loop
      vertex 91.4 72.1 15
      vertex 0 5 15
      vertex 96.4 72.1 15
    endloop
  endfacet
  facet normal 0 1 0
    outer loop
      vertex 5 0 17
      vertex 5 0 15
      vertex 0 0 17
    endloop
  endfacet
  facet normal 0 1 0
    outer loop
      vertex 0 0 17
      vertex 5 0 15
      vertex 0 0 15
    endloop
  endfacet
  facet normal 1 0 0
    outer loop
      vertex 96.4 67.1 15
      vertex 96.4 67.1 0
      vertex 96.4 72.1 0
    endloop
  endfacet
  facet normal 1 0 0
    outer loop
      vertex 96.4 72.1 15
      vertex 96.4 67.1 15
      vertex 96.4 72.1 0
    endloop
  endfacet
  facet normal 0 0 -1
    outer loop
      vertex 0 0 0
      vertex 0 5 0
      vertex 5 0 0
    endloop
  endfacet
  facet normal 0 0 -1
    outer loop
      vertex 5 0 0
      vertex 0 5 0
      vertex 91.4 72.1 0
    endloop
  endfacet
  facet normal 0 0 -1
    outer loop
      vertex 5 0 0
      vertex 91.4 72.1 0
      vertex 96.4 72.1 0
    endloop
  endfacet
  facet normal 0 0 -1
    outer loop
      vertex 5 0 0
      vertex 96.4 72.1 0
      vertex 96.4 67.1 0
    endloop
  endfacet
  facet normal 0 1 0
    outer loop
      vertex 91.4 72.1 0
      vertex 91.4 72.1 15
      vertex 96.4 72.1 0
    endloop
  endfacet
  facet normal 0 1 0
    outer loop
      vertex 96.4 72.1 0
      vertex 91.4 72.1 15
      vertex 96.4 72.1 15
    endloop
  endfacet
  facet normal -2.22045e-016 -1 0
    outer loop
      vertex -2 67.1 17
      vertex -2 67.1 13
      vertex -1.55431e-015 67.1 13
    endloop
  endfacet
  facet normal -2.22045e-016 -1 0
    outer loop
      vertex -1.55431e-015 67.1 17
      vertex -2 67.1 17
      vertex -1.55431e-015 67.1 13
    endloop
  endfacet
  facet normal 0 0 -1
    outer loop
      vertex -2 67.1 13
      vertex -2 74.1 13
      vertex -1.55431e-015 67.1 13
    endloop
  endfacet
  facet normal 0 0 -1
    outer loop
      vertex 0 72.1 13
      vertex -2 74.1 13
      vertex 5 74.1 13
    endloop
  endfacet
  facet normal 0 0 -1
    outer loop
      vertex -4.44089e-016 72.1 13
      vertex -2 74.1 13
      vertex 0 72.1 13
    endloop
  endfacet
  facet normal 0 0 -1
    outer loop
      vertex -1.55431e-015 67.1 13
      vertex -2 74.1 13
      vertex -4.44089e-016 72.1 13
    endloop
  endfacet
  facet normal 0 0 -1
    outer loop
      vertex 0 72.1 13
      vertex 5 74.1 13
      vertex 5 72.1 13
    endloop
  endfacet
  facet normal -1 2.22045e-016 0
    outer loop
      vertex -2 67.1 13
      vertex -2 67.1 17
      vertex -2 74.1 13
    endloop
  endfacet
  facet normal -1 2.22045e-016 0
    outer loop
      vertex -2 74.1 13
      vertex -2 67.1 17
      vertex -2 74.1 17
    endloop
  endfacet
  facet normal 0 0 1
    outer loop
      vertex -2 74.1 17
      vertex -2 67.1 17
      vertex -1.55431e-015 67.1 17
    endloop
  endfacet
  facet normal 0 0 1
    outer loop
      vertex 5 72.1 17
      vertex -2 74.1 17
      vertex -4.44089e-016 72.1 17
    endloop
  endfacet
  facet normal 0 0 1
    outer loop
      vertex -4.44089e-016 72.1 17
      vertex -2 74.1 17
      vertex -1.55431e-015 67.1 17
    endloop
  endfacet
  facet normal 0 0 1
    outer loop
      vertex 5 74.1 17
      vertex -2 74.1 17
      vertex 5 72.1 17
    endloop
  endfacet
  facet normal 1 -2.22045e-016 0
    outer loop
      vertex -1.55431e-015 67.1 17
      vertex -1.55431e-015 67.1 13
      vertex -4.44089e-016 72.1 13
    endloop
  endfacet
  facet normal 1 -2.22045e-016 0
    outer loop
      vertex -4.44089e-016 72.1 17
      vertex -1.55431e-015 67.1 17
      vertex -4.44089e-016 72.1 13
    endloop
  endfacet
  facet normal -2.22045e-016 -1 0
    outer loop
      vertex -4.44089e-016 72.1 17
      vertex -4.44089e-016 72.1 13
      vertex 0 72.1 13
    endloop
  endfacet
  facet normal -2.22045e-016 -1 0
    outer loop
      vertex 5 72.1 15
      vertex -4.44089e-016 72.1 17
      vertex 0 72.1 15
    endloop
  endfacet
  facet normal -2.22045e-016 -1 0
    outer loop
      vertex 0 72.1 15
      vertex -4.44089e-016 72.1 17
      vertex 0 72.1 13
    endloop
  endfacet
  facet normal -2.22045e-016 -1 0
    outer loop
      vertex 5 72.1 17
      vertex -4.44089e-016 72.1 17
      vertex 5 72.1 15
    endloop
  endfacet
  facet normal -1 0 0
    outer loop
      vertex 0 67.1 0
      vertex 0 67.1 15
      vertex 0 72.1 0
    endloop
  endfacet
  facet normal -1 0 0
    outer loop
      vertex 0 72.1 13
      vertex 0 67.1 15
      vertex 0 72.1 15
    endloop
  endfacet
  facet normal -1 0 0
    outer loop
      vertex 0 72.1 0
      vertex 0 67.1 15
      vertex 0 72.1 13
    endloop
  endfacet
  facet normal 0 1 0
    outer loop
      vertex 0 72.1 0
      vertex 0 72.1 13
      vertex 5 72.1 0
    endloop
  endfacet
  facet normal 0 1 0
    outer loop
      vertex 5 72.1 0
      vertex 0 72.1 13
      vertex 5 72.1 13
    endloop
  endfacet
  facet normal 0 1 0
    outer loop
      vertex 5 72.1 0
      vertex 5 72.1 13
      vertex 5 72.1 15
    endloop
  endfacet
  facet normal 1 -2.22045e-016 0
    outer loop
      vertex 5 74.1 13
      vertex 5 72.1 17
      vertex 5 72.1 15
    endloop
  endfacet
  facet normal 1 -2.22045e-016 0
    outer loop
      vertex 5 72.1 13
      vertex 5 74.1 13
      vertex 5 72.1 15
    endloop
  endfacet
  facet normal 1 -2.22045e-016 0
    outer loop
      vertex 5 74.1 13
      vertex 5 74.1 17
      vertex 5 72.1 17
    endloop
  endfacet
  facet normal 2.22045e-016 1 0
    outer loop
      vertex -2 74.1 13
      vertex -2 74.1 17
      vertex 5 74.1 13
    endloop
  endfacet
  facet normal 2.22045e-016 1 0
    outer loop
      vertex 5 74.1 13
      vertex -2 74.1 17
      vertex 5 74.1 17
    endloop
  endfacet
  facet normal 0 0 1
    outer loop
      vertex 0 72.1 15
      vertex 0 67.1 15
      vertex 91.4 0 15
    endloop
  endfacet
  facet normal 0 0 1
    outer loop
      vertex 91.4 1.55431e-015 15
      vertex 0 72.1 15
      vertex 91.4 0 15
    endloop
  endfacet
  facet normal 0 0 1
    outer loop
      vertex 96.4 4.44089e-016 15
      vertex 0 72.1 15
      vertex 91.4 1.55431e-015 15
    endloop
  endfacet
  facet normal 0 0 1
    outer loop
      vertex 96.4 5 15
      vertex 0 72.1 15
      vertex 96.4 4.44089e-016 15
    endloop
  endfacet
  facet normal 0 0 1
    outer loop
      vertex 5 72.1 15
      vertex 0 72.1 15
      vertex 96.4 5 15
    endloop
  endfacet
  facet normal 0 0 -1
    outer loop
      vertex 0 67.1 0
      vertex 0 72.1 0
      vertex 91.4 0 0
    endloop
  endfacet
  facet normal 0 0 -1
    outer loop
      vertex 91.4 0 0
      vertex 0 72.1 0
      vertex 5 72.1 0
    endloop
  endfacet
  facet normal 0 0 -1
    outer loop
      vertex 91.4 0 0
      vertex 5 72.1 0
      vertex 96.4 5 0
    endloop
  endfacet
  facet normal 0 0 -1
    outer loop
      vertex 91.4 0 0
      vertex 96.4 5 0
      vertex 96.4 0 0
    endloop
  endfacet
  facet normal -0.591784 -0.806096 0
    outer loop
      vertex 0 67.1 15
      vertex 0 67.1 0
      vertex 91.4 0 0
    endloop
  endfacet
  facet normal -0.591784 -0.806096 0
    outer loop
      vertex 91.4 0 15
      vertex 0 67.1 15
      vertex 91.4 0 0
    endloop
  endfacet
  facet normal 0.591784 0.806096 0
    outer loop
      vertex 5 72.1 0
      vertex 5 72.1 15
      vertex 96.4 5 0
    endloop
  endfacet
  facet normal 0.591784 0.806096 0
    outer loop
      vertex 96.4 5 0
      vertex 5 72.1 15
      vertex 96.4 5 15
    endloop
  endfacet
  facet normal 1 0 0
    outer loop
      vertex 96.4 0 13
      vertex 96.4 0 0
      vertex 96.4 5 0
    endloop
  endfacet
  facet normal 1 0 0
    outer loop
      vertex 96.4 4.44089e-016 13
      vertex 96.4 0 13
      vertex 96.4 5 0
    endloop
  endfacet
  facet normal 1 0 0
    outer loop
      vertex 96.4 5 15
      vertex 96.4 4.44089e-016 13
      vertex 96.4 5 0
    endloop
  endfacet
  facet normal 1 0 0
    outer loop
      vertex 96.4 4.44089e-016 15
      vertex 96.4 4.44089e-016 13
      vertex 96.4 5 15
    endloop
  endfacet
  facet normal 2.22045e-016 1 0
    outer loop
      vertex 91.4 1.55431e-015 15
      vertex 91.4 1.55431e-015 17
      vertex 96.4 4.44089e-016 15
    endloop
  endfacet
  facet normal 2.22045e-016 1 0
    outer loop
      vertex 96.4 4.44089e-016 15
      vertex 91.4 1.55431e-015 17
      vertex 96.4 4.44089e-016 17
    endloop
  endfacet
  facet normal 2.22045e-016 1 0
    outer loop
      vertex 96.4 4.44089e-016 15
      vertex 96.4 4.44089e-016 17
      vertex 96.4 4.44089e-016 13
    endloop
  endfacet
  facet normal -1 2.22045e-016 0
    outer loop
      vertex 91.4 -2 13
      vertex 91.4 -2 17
      vertex 91.4 0 13
    endloop
  endfacet
  facet normal -1 2.22045e-016 0
    outer loop
      vertex 91.4 0 15
      vertex 91.4 -2 17
      vertex 91.4 1.55431e-015 17
    endloop
  endfacet
  facet normal -1 2.22045e-016 0
    outer loop
      vertex 91.4 0 13
      vertex 91.4 -2 17
      vertex 91.4 0 15
    endloop
  endfacet
  facet normal -1 2.22045e-016 0
    outer loop
      vertex 91.4 0 15
      vertex 91.4 1.55431e-015 17
      vertex 91.4 1.55431e-015 15
    endloop
  endfacet
  facet normal 0 -1 0
    outer loop
      vertex 91.4 0 13
      vertex 91.4 0 0
      vertex 96.4 0 0
    endloop
  endfacet
  facet normal 0 -1 0
    outer loop
      vertex 91.4 0 15
      vertex 91.4 0 0
      vertex 91.4 0 13
    endloop
  endfacet
  facet normal 0 -1 0
    outer loop
      vertex 96.4 0 13
      vertex 91.4 0 13
      vertex 96.4 0 0
    endloop
  endfacet
  facet normal 0 0 -1
    outer loop
      vertex 91.4 -2 13
      vertex 91.4 0 13
      vertex 98.4 -2 13
    endloop
  endfacet
  facet normal 0 0 -1
    outer loop
      vertex 98.4 -2 13
      vertex 91.4 0 13
      vertex 96.4 0 13
    endloop
  endfacet
  facet normal 0 0 -1
    outer loop
      vertex 98.4 -2 13
      vertex 96.4 0 13
      vertex 96.4 4.44089e-016 13
    endloop
  endfacet
  facet normal 0 0 -1
    outer loop
      vertex 98.4 -2 13
      vertex 96.4 4.44089e-016 13
      vertex 96.4 5 13
    endloop
  endfacet
  facet normal 0 0 -1
    outer loop
      vertex 98.4 -2 13
      vertex 96.4 5 13
      vertex 98.4 5 13
    endloop
  endfacet
  facet normal -1 2.22045e-016 0
    outer loop
      vertex 96.4 4.44089e-016 13
      vertex 96.4 4.44089e-016 17
      vertex 96.4 5 13
    endloop
  endfacet
  facet normal -1 2.22045e-016 0
    outer loop
      vertex 96.4 5 13
      vertex 96.4 4.44089e-016 17
      vertex 96.4 5 17
    endloop
  endfacet
  facet normal 0 0 1
    outer loop
      vertex 91.4 1.55431e-015 17
      vertex 91.4 -2 17
      vertex 98.4 -2 17
    endloop
  endfacet
  facet normal 0 0 1
    outer loop
      vertex 96.4 4.44089e-016 17
      vertex 91.4 1.55431e-015 17
      vertex 98.4 -2 17
    endloop
  endfacet
  facet normal 0 0 1
    outer loop
      vertex 98.4 5 17
      vertex 96.4 4.44089e-016 17
      vertex 98.4 -2 17
    endloop
  endfacet
  facet normal 0 0 1
    outer loop
      vertex 96.4 5 17
      vertex 96.4 4.44089e-016 17
      vertex 98.4 5 17
    endloop
  endfacet
  facet normal -2.22045e-016 -1 0
    outer loop
      vertex 91.4 -2 17
      vertex 91.4 -2 13
      vertex 98.4 -2 13
    endloop
  endfacet
  facet normal -2.22045e-016 -1 0
    outer loop
      vertex 98.4 -2 17
      vertex 91.4 -2 17
      vertex 98.4 -2 13
    endloop
  endfacet
  facet normal 1 -2.22045e-016 0
    outer loop
      vertex 98.4 -2 17
      vertex 98.4 -2 13
      vertex 98.4 5 13
    endloop
  endfacet
  facet normal 1 -2.22045e-016 0
    outer loop
      vertex 98.4 5 17
      vertex 98.4 -2 17
      vertex 98.4 5 13
    endloop
  endfacet
  facet normal 2.22045e-016 1 0
    outer loop
      vertex 96.4 5 13
      vertex 96.4 5 17
      vertex 98.4 5 13
    endloop
  endfacet
  facet normal 2.22045e-016 1 0
    outer loop
      vertex 98.4 5 13
      vertex 96.4 5 17
      vertex 98.4 5 17
    endloop
  endfacet
  facet normal -1.22461e-016 -1 0
    outer loop
      vertex 91.4 72.1 17
      vertex 91.4 72.1 13
      vertex 96.4 72.1 13
    endloop
  endfacet
  facet normal -1.22461e-016 -1 0
    outer loop
      vertex 96.4 72.1 17
      vertex 91.4 72.1 17
      vertex 96.4 72.1 13
    endloop
  endfacet
  facet normal 0 0 -1
    outer loop
      vertex 91.4 72.1 13
      vertex 91.4 74.1 13
      vertex 96.4 72.1 13
    endloop
  endfacet
  facet normal 0 0 -1
    outer loop
      vertex 96.4 72.1 13
      vertex 91.4 74.1 13
      vertex 98.4 74.1 13
    endloop
  endfacet
  facet normal 0 0 -1
    outer loop
      vertex 96.4 72.1 13
      vertex 98.4 74.1 13
      vertex 98.4 67.1 13
    endloop
  endfacet
  facet normal 0 0 -1
    outer loop
      vertex 96.4 72.1 13
      vertex 98.4 67.1 13
      vertex 96.4 67.1 13
    endloop
  endfacet
  facet normal -1 1.22461e-016 0
    outer loop
      vertex 91.4 72.1 13
      vertex 91.4 72.1 17
      vertex 91.4 74.1 13
    endloop
  endfacet
  facet normal -1 1.22461e-016 0
    outer loop
      vertex 91.4 74.1 13
      vertex 91.4 72.1 17
      vertex 91.4 74.1 17
    endloop
  endfacet
  facet normal 0 0 1
    outer loop
      vertex 91.4 74.1 17
      vertex 91.4 72.1 17
      vertex 96.4 72.1 17
    endloop
  endfacet
  facet normal 0 0 1
    outer loop
      vertex 98.4 74.1 17
      vertex 91.4 74.1 17
      vertex 96.4 72.1 17
    endloop
  endfacet
  facet normal 0 0 1
    outer loop
      vertex 96.4 67.1 17
      vertex 98.4 67.1 17
      vertex 96.4 72.1 17
    endloop
  endfacet
  facet normal 0 0 1
    outer loop
      vertex 98.4 67.1 17
      vertex 98.4 74.1 17
      vertex 96.4 72.1 17
    endloop
  endfacet
  facet normal -1 1.22461e-016 0
    outer loop
      vertex 96.4 67.1 13
      vertex 96.4 67.1 17
      vertex 96.4 72.1 13
    endloop
  endfacet
  facet normal -1 1.22461e-016 0
    outer loop
      vertex 96.4 72.1 13
      vertex 96.4 67.1 17
      vertex 96.4 72.1 17
    endloop
  endfacet
  facet normal -1.22461e-016 -1 0
    outer loop
      vertex 96.4 67.1 17
      vertex 96.4 67.1 13
      vertex 98.4 67.1 13
    endloop
  endfacet
  facet normal -1.22461e-016 -1 0
    outer loop
      vertex 98.4 67.1 17
      vertex 96.4 67.1 17
      vertex 98.4 67.1 13
    endloop
  endfacet
  facet normal 1 -1.22461e-016 0
    outer loop
      vertex 98.4 67.1 17
      vertex 98.4 67.1 13
      vertex 98.4 74.1 13
    endloop
  endfacet
  facet normal 1 -1.22461e-016 0
    outer loop
      vertex 98.4 74.1 17
      vertex 98.4 67.1 17
      vertex 98.4 74.1 13
    endloop
  endfacet
  facet normal 1.22461e-016 1 0
    outer loop
      vertex 91.4 74.1 13
      vertex 91.4 74.1 17
      vertex 98.4 74.1 13
    endloop
  endfacet
  facet normal 1.22461e-016 1 0
    outer loop
      vertex 98.4 74.1 13
      vertex 91.4 74.1 17
      vertex 98.4 74.1 17
    endloop
  endfacet
endsolid OpenSCAD_Model
