solid OpenSCAD_Model
  facet normal -1 0 0
    outer loop
      vertex -2 -2 15.5
      vertex -2 -2 19.5
      vertex -2 5 15.5
    endloop
  endfacet
  facet normal -1 0 0
    outer loop
      vertex -2 5 15.5
      vertex -2 -2 19.5
      vertex -2 5 19.5
    endloop
  endfacet
  facet normal 0 -1 0
    outer loop
      vertex -2 -2 19.5
      vertex -2 -2 15.5
      vertex 5 -2 15.5
    endloop
  endfacet
  facet normal 0 -1 0
    outer loop
      vertex 5 -2 19.5
      vertex -2 -2 19.5
      vertex 5 -2 15.5
    endloop
  endfacet
  facet normal 0 0 -1
    outer loop
      vertex 5 0 15.5
      vertex 5 -2 15.5
      vertex 0 0 15.5
    endloop
  endfacet
  facet normal 0 0 -1
    outer loop
      vertex -2 -2 15.5
      vertex -2 5 15.5
      vertex 0 0 15.5
    endloop
  endfacet
  facet normal 0 0 -1
    outer loop
      vertex -2 -2 15.5
      vertex 0 0 15.5
      vertex 5 -2 15.5
    endloop
  endfacet
  facet normal 0 0 -1
    outer loop
      vertex 0 0 15.5
      vertex -2 5 15.5
      vertex 0 5 15.5
    endloop
  endfacet
  facet normal 0 1 0
    outer loop
      vertex -2 5 15.5
      vertex -2 5 19.5
      vertex 0 5 15.5
    endloop
  endfacet
  facet normal 0 1 0
    outer loop
      vertex 0 5 17.5
      vertex -2 5 19.5
      vertex 0 5 19.5
    endloop
  endfacet
  facet normal 0 1 0
    outer loop
      vertex 0 5 15.5
      vertex -2 5 19.5
      vertex 0 5 17.5
    endloop
  endfacet
  facet normal 0 0 1
    outer loop
      vertex 0 0 19.5
      vertex -2 -2 19.5
      vertex 5 -2 19.5
    endloop
  endfacet
  facet normal 0 0 1
    outer loop
      vertex 0 0 19.5
      vertex 0 5 19.5
      vertex -2 5 19.5
    endloop
  endfacet
  facet normal 0 0 1
    outer loop
      vertex -2 5 19.5
      vertex -2 -2 19.5
      vertex 0 0 19.5
    endloop
  endfacet
  facet normal 0 0 1
    outer loop
      vertex 5 0 19.5
      vertex 0 0 19.5
      vertex 5 -2 19.5
    endloop
  endfacet
  facet normal 1 0 0
    outer loop
      vertex 5 -2 19.5
      vertex 5 -2 15.5
      vertex 5 0 15.5
    endloop
  endfacet
  facet normal 1 0 0
    outer loop
      vertex 5 0 19.5
      vertex 5 -2 19.5
      vertex 5 0 17.5
    endloop
  endfacet
  facet normal 1 0 0
    outer loop
      vertex 5 0 17.5
      vertex 5 -2 19.5
      vertex 5 0 15.5
    endloop
  endfacet
  facet normal 0.663749 -0.747956 0
    outer loop
      vertex 5 0 15.5
      vertex 5 0 0
      vertex 80.5 67 0
    endloop
  endfacet
  facet normal 0.663749 -0.747956 0
    outer loop
      vertex 5 0 17.5
      vertex 5 0 15.5
      vertex 80.5 67 17.5
    endloop
  endfacet
  facet normal 0.663749 -0.747956 0
    outer loop
      vertex 80.5 67 17.5
      vertex 5 0 15.5
      vertex 80.5 67 0
    endloop
  endfacet
  facet normal 0 -1 0
    outer loop
      vertex 0 0 15.5
      vertex 0 0 0
      vertex 5 0 0
    endloop
  endfacet
  facet normal 0 -1 0
    outer loop
      vertex 5 0 15.5
      vertex 0 0 15.5
      vertex 5 0 0
    endloop
  endfacet
  facet normal -1 0 0
    outer loop
      vertex 0 0 0
      vertex 0 0 15.5
      vertex 0 5 0
    endloop
  endfacet
  facet normal -1 0 0
    outer loop
      vertex 0 5 0
      vertex 0 0 15.5
      vertex 0 5 15.5
    endloop
  endfacet
  facet normal -0.663749 0.747956 0
    outer loop
      vertex 0 5 0
      vertex 0 5 15.5
      vertex 75.5 72 0
    endloop
  endfacet
  facet normal -0.663749 0.747956 0
    outer loop
      vertex 75.5 72 0
      vertex 0 5 15.5
      vertex 0 5 17.5
    endloop
  endfacet
  facet normal -0.663749 0.747956 0
    outer loop
      vertex 75.5 72 0
      vertex 0 5 17.5
      vertex 75.5 72 17.5
    endloop
  endfacet
  facet normal 1 0 0
    outer loop
      vertex 0 5 17.5
      vertex 0 5 19.5
      vertex 0 0 19.5
    endloop
  endfacet
  facet normal 1 0 0
    outer loop
      vertex 0 0 17.5
      vertex 0 5 17.5
      vertex 0 0 19.5
    endloop
  endfacet
  facet normal 0 0 1
    outer loop
      vertex 0 5 17.5
      vertex 0 0 17.5
      vertex 5 0 17.5
    endloop
  endfacet
  facet normal 0 0 1
    outer loop
      vertex 80.5 67 17.5
      vertex 0 5 17.5
      vertex 5 0 17.5
    endloop
  endfacet
  facet normal 0 0 1
    outer loop
      vertex 80.5 72 17.5
      vertex 0 5 17.5
      vertex 80.5 67 17.5
    endloop
  endfacet
  facet normal 0 0 1
    outer loop
      vertex 75.5 72 17.5
      vertex 0 5 17.5
      vertex 80.5 72 17.5
    endloop
  endfacet
  facet normal 0 1 0
    outer loop
      vertex 5 0 19.5
      vertex 5 0 17.5
      vertex 0 0 19.5
    endloop
  endfacet
  facet normal 0 1 0
    outer loop
      vertex 0 0 19.5
      vertex 5 0 17.5
      vertex 0 0 17.5
    endloop
  endfacet
  facet normal 1 0 0
    outer loop
      vertex 80.5 67 15.5
      vertex 80.5 67 0
      vertex 80.5 72 0
    endloop
  endfacet
  facet normal 1 0 0
    outer loop
      vertex 80.5 67 17.5
      vertex 80.5 67 0
      vertex 80.5 67 15.5
    endloop
  endfacet
  facet normal 1 0 0
    outer loop
      vertex 80.5 72 15.5
      vertex 80.5 67 15.5
      vertex 80.5 72 0
    endloop
  endfacet
  facet normal 0 0 -1
    outer loop
      vertex 0 0 0
      vertex 0 5 0
      vertex 5 0 0
    endloop
  endfacet
  facet normal 0 0 -1
    outer loop
      vertex 5 0 0
      vertex 0 5 0
      vertex 75.5 72 0
    endloop
  endfacet
  facet normal 0 0 -1
    outer loop
      vertex 5 0 0
      vertex 75.5 72 0
      vertex 80.5 72 0
    endloop
  endfacet
  facet normal 0 0 -1
    outer loop
      vertex 5 0 0
      vertex 80.5 72 0
      vertex 80.5 67 0
    endloop
  endfacet
  facet normal 0 1 0
    outer loop
      vertex 75.5 72 0
      vertex 75.5 72 17.5
      vertex 80.5 72 0
    endloop
  endfacet
  facet normal 0 1 0
    outer loop
      vertex 80.5 72 15.5
      vertex 75.5 72 17.5
      vertex 80.5 72 17.5
    endloop
  endfacet
  facet normal 0 1 0
    outer loop
      vertex 80.5 72 0
      vertex 75.5 72 17.5
      vertex 80.5 72 15.5
    endloop
  endfacet
  facet normal -1 1.22461e-016 0
    outer loop
      vertex 80.5 67 17.5
      vertex 80.5 67 19.5
      vertex 80.5 72 17.5
    endloop
  endfacet
  facet normal -1 1.22461e-016 0
    outer loop
      vertex 80.5 72 17.5
      vertex 80.5 67 19.5
      vertex 80.5 72 19.5
    endloop
  endfacet
  facet normal -1 1.22461e-016 0
    outer loop
      vertex 80.5 72 17.5
      vertex 80.5 72 19.5
      vertex 80.5 72 15.5
    endloop
  endfacet
  facet normal -1.22461e-016 -1 0
    outer loop
      vertex 82.5 67 15.5
      vertex 80.5 67 19.5
      vertex 80.5 67 17.5
    endloop
  endfacet
  facet normal -1.22461e-016 -1 0
    outer loop
      vertex 80.5 67 15.5
      vertex 82.5 67 15.5
      vertex 80.5 67 17.5
    endloop
  endfacet
  facet normal -1.22461e-016 -1 0
    outer loop
      vertex 82.5 67 15.5
      vertex 82.5 67 19.5
      vertex 80.5 67 19.5
    endloop
  endfacet
  facet normal 0 0 -1
    outer loop
      vertex 75.5 72 15.5
      vertex 75.5 74 15.5
      vertex 80.5 72 15.5
    endloop
  endfacet
  facet normal 0 0 -1
    outer loop
      vertex 80.5 72 15.5
      vertex 75.5 74 15.5
      vertex 82.5 74 15.5
    endloop
  endfacet
  facet normal 0 0 -1
    outer loop
      vertex 80.5 72 15.5
      vertex 82.5 74 15.5
      vertex 82.5 67 15.5
    endloop
  endfacet
  facet normal 0 0 -1
    outer loop
      vertex 80.5 72 15.5
      vertex 82.5 67 15.5
      vertex 80.5 67 15.5
    endloop
  endfacet
  facet normal -1.22461e-016 -1 0
    outer loop
      vertex 75.5 72 19.5
      vertex 75.5 72 15.5
      vertex 80.5 72 15.5
    endloop
  endfacet
  facet normal -1.22461e-016 -1 0
    outer loop
      vertex 80.5 72 19.5
      vertex 75.5 72 19.5
      vertex 80.5 72 15.5
    endloop
  endfacet
  facet normal 0 0 1
    outer loop
      vertex 75.5 74 19.5
      vertex 75.5 72 19.5
      vertex 80.5 72 19.5
    endloop
  endfacet
  facet normal 0 0 1
    outer loop
      vertex 82.5 74 19.5
      vertex 75.5 74 19.5
      vertex 80.5 72 19.5
    endloop
  endfacet
  facet normal 0 0 1
    outer loop
      vertex 80.5 67 19.5
      vertex 82.5 67 19.5
      vertex 80.5 72 19.5
    endloop
  endfacet
  facet normal 0 0 1
    outer loop
      vertex 82.5 67 19.5
      vertex 82.5 74 19.5
      vertex 80.5 72 19.5
    endloop
  endfacet
  facet normal 1 -1.22461e-016 0
    outer loop
      vertex 82.5 67 19.5
      vertex 82.5 67 15.5
      vertex 82.5 74 15.5
    endloop
  endfacet
  facet normal 1 -1.22461e-016 0
    outer loop
      vertex 82.5 74 19.5
      vertex 82.5 67 19.5
      vertex 82.5 74 15.5
    endloop
  endfacet
  facet normal 1.22461e-016 1 0
    outer loop
      vertex 75.5 74 15.5
      vertex 75.5 74 19.5
      vertex 82.5 74 15.5
    endloop
  endfacet
  facet normal 1.22461e-016 1 0
    outer loop
      vertex 82.5 74 15.5
      vertex 75.5 74 19.5
      vertex 82.5 74 19.5
    endloop
  endfacet
  facet normal -1 1.22461e-016 0
    outer loop
      vertex 75.5 72 15.5
      vertex 75.5 72 19.5
      vertex 75.5 74 15.5
    endloop
  endfacet
  facet normal -1 1.22461e-016 0
    outer loop
      vertex 75.5 74 15.5
      vertex 75.5 72 19.5
      vertex 75.5 74 19.5
    endloop
  endfacet
  facet normal -2.22045e-016 -1 0
    outer loop
      vertex -2 67 19.5
      vertex -2 67 15.5
      vertex -1.55431e-015 67 15.5
    endloop
  endfacet
  facet normal -2.22045e-016 -1 0
    outer loop
      vertex -1.55431e-015 67 19.5
      vertex -2 67 19.5
      vertex -1.55431e-015 67 15.5
    endloop
  endfacet
  facet normal 0 0 -1
    outer loop
      vertex -2 67 15.5
      vertex -2 74 15.5
      vertex -1.55431e-015 67 15.5
    endloop
  endfacet
  facet normal 0 0 -1
    outer loop
      vertex 0 72 15.5
      vertex -2 74 15.5
      vertex 5 74 15.5
    endloop
  endfacet
  facet normal 0 0 -1
    outer loop
      vertex -4.44089e-016 72 15.5
      vertex -2 74 15.5
      vertex 0 72 15.5
    endloop
  endfacet
  facet normal 0 0 -1
    outer loop
      vertex -1.55431e-015 67 15.5
      vertex -2 74 15.5
      vertex -4.44089e-016 72 15.5
    endloop
  endfacet
  facet normal 0 0 -1
    outer loop
      vertex 0 72 15.5
      vertex 5 74 15.5
      vertex 5 72 15.5
    endloop
  endfacet
  facet normal -1 2.22045e-016 0
    outer loop
      vertex -2 67 15.5
      vertex -2 67 19.5
      vertex -2 74 15.5
    endloop
  endfacet
  facet normal -1 2.22045e-016 0
    outer loop
      vertex -2 74 15.5
      vertex -2 67 19.5
      vertex -2 74 19.5
    endloop
  endfacet
  facet normal 0 0 1
    outer loop
      vertex -2 74 19.5
      vertex -2 67 19.5
      vertex -1.55431e-015 67 19.5
    endloop
  endfacet
  facet normal 0 0 1
    outer loop
      vertex 5 72 19.5
      vertex -2 74 19.5
      vertex -4.44089e-016 72 19.5
    endloop
  endfacet
  facet normal 0 0 1
    outer loop
      vertex -4.44089e-016 72 19.5
      vertex -2 74 19.5
      vertex -1.55431e-015 67 19.5
    endloop
  endfacet
  facet normal 0 0 1
    outer loop
      vertex 5 74 19.5
      vertex -2 74 19.5
      vertex 5 72 19.5
    endloop
  endfacet
  facet normal 1 -2.22045e-016 0
    outer loop
      vertex -1.55431e-015 67 19.5
      vertex -1.55431e-015 67 15.5
      vertex -4.44089e-016 72 15.5
    endloop
  endfacet
  facet normal 1 -2.22045e-016 0
    outer loop
      vertex -4.44089e-016 72 19.5
      vertex -1.55431e-015 67 19.5
      vertex -4.44089e-016 72 15.5
    endloop
  endfacet
  facet normal -2.22045e-016 -1 0
    outer loop
      vertex -4.44089e-016 72 19.5
      vertex -4.44089e-016 72 15.5
      vertex 0 72 15.5
    endloop
  endfacet
  facet normal -2.22045e-016 -1 0
    outer loop
      vertex 5 72 17.5
      vertex -4.44089e-016 72 19.5
      vertex 0 72 17.5
    endloop
  endfacet
  facet normal -2.22045e-016 -1 0
    outer loop
      vertex 0 72 17.5
      vertex -4.44089e-016 72 19.5
      vertex 0 72 15.5
    endloop
  endfacet
  facet normal -2.22045e-016 -1 0
    outer loop
      vertex 5 72 19.5
      vertex -4.44089e-016 72 19.5
      vertex 5 72 17.5
    endloop
  endfacet
  facet normal -1 0 0
    outer loop
      vertex 0 67 0
      vertex 0 67 17.5
      vertex 0 72 0
    endloop
  endfacet
  facet normal -1 0 0
    outer loop
      vertex 0 72 15.5
      vertex 0 67 17.5
      vertex 0 72 17.5
    endloop
  endfacet
  facet normal -1 0 0
    outer loop
      vertex 0 72 0
      vertex 0 67 17.5
      vertex 0 72 15.5
    endloop
  endfacet
  facet normal 0 1 0
    outer loop
      vertex 0 72 0
      vertex 0 72 15.5
      vertex 5 72 0
    endloop
  endfacet
  facet normal 0 1 0
    outer loop
      vertex 5 72 0
      vertex 0 72 15.5
      vertex 5 72 15.5
    endloop
  endfacet
  facet normal 0 1 0
    outer loop
      vertex 5 72 0
      vertex 5 72 15.5
      vertex 5 72 17.5
    endloop
  endfacet
  facet normal 1 -2.22045e-016 0
    outer loop
      vertex 5 74 15.5
      vertex 5 72 19.5
      vertex 5 72 17.5
    endloop
  endfacet
  facet normal 1 -2.22045e-016 0
    outer loop
      vertex 5 72 15.5
      vertex 5 74 15.5
      vertex 5 72 17.5
    endloop
  endfacet
  facet normal 1 -2.22045e-016 0
    outer loop
      vertex 5 74 15.5
      vertex 5 74 19.5
      vertex 5 72 19.5
    endloop
  endfacet
  facet normal 2.22045e-016 1 0
    outer loop
      vertex -2 74 15.5
      vertex -2 74 19.5
      vertex 5 74 15.5
    endloop
  endfacet
  facet normal 2.22045e-016 1 0
    outer loop
      vertex 5 74 15.5
      vertex -2 74 19.5
      vertex 5 74 19.5
    endloop
  endfacet
  facet normal 0 0 1
    outer loop
      vertex 0 72 17.5
      vertex 0 67 17.5
      vertex 75.5 0 17.5
    endloop
  endfacet
  facet normal 0 0 1
    outer loop
      vertex 75.5 1.55431e-015 17.5
      vertex 0 72 17.5
      vertex 75.5 0 17.5
    endloop
  endfacet
  facet normal 0 0 1
    outer loop
      vertex 80.5 4.44089e-016 17.5
      vertex 0 72 17.5
      vertex 75.5 1.55431e-015 17.5
    endloop
  endfacet
  facet normal 0 0 1
    outer loop
      vertex 80.5 5 17.5
      vertex 0 72 17.5
      vertex 80.5 4.44089e-016 17.5
    endloop
  endfacet
  facet normal 0 0 1
    outer loop
      vertex 5 72 17.5
      vertex 0 72 17.5
      vertex 80.5 5 17.5
    endloop
  endfacet
  facet normal 0 0 -1
    outer loop
      vertex 0 67 0
      vertex 0 72 0
      vertex 75.5 0 0
    endloop
  endfacet
  facet normal 0 0 -1
    outer loop
      vertex 75.5 0 0
      vertex 0 72 0
      vertex 5 72 0
    endloop
  endfacet
  facet normal 0 0 -1
    outer loop
      vertex 75.5 0 0
      vertex 5 72 0
      vertex 80.5 5 0
    endloop
  endfacet
  facet normal 0 0 -1
    outer loop
      vertex 75.5 0 0
      vertex 80.5 5 0
      vertex 80.5 0 0
    endloop
  endfacet
  facet normal -0.663749 -0.747956 0
    outer loop
      vertex 0 67 17.5
      vertex 0 67 0
      vertex 75.5 0 0
    endloop
  endfacet
  facet normal -0.663749 -0.747956 0
    outer loop
      vertex 75.5 0 17.5
      vertex 0 67 17.5
      vertex 75.5 0 0
    endloop
  endfacet
  facet normal 0.663749 0.747956 0
    outer loop
      vertex 5 72 0
      vertex 5 72 17.5
      vertex 80.5 5 0
    endloop
  endfacet
  facet normal 0.663749 0.747956 0
    outer loop
      vertex 80.5 5 0
      vertex 5 72 17.5
      vertex 80.5 5 17.5
    endloop
  endfacet
  facet normal 1 0 0
    outer loop
      vertex 80.5 0 15.5
      vertex 80.5 0 0
      vertex 80.5 5 0
    endloop
  endfacet
  facet normal 1 0 0
    outer loop
      vertex 80.5 4.44089e-016 15.5
      vertex 80.5 0 15.5
      vertex 80.5 5 0
    endloop
  endfacet
  facet normal 1 0 0
    outer loop
      vertex 80.5 5 17.5
      vertex 80.5 4.44089e-016 15.5
      vertex 80.5 5 0
    endloop
  endfacet
  facet normal 1 0 0
    outer loop
      vertex 80.5 4.44089e-016 17.5
      vertex 80.5 4.44089e-016 15.5
      vertex 80.5 5 17.5
    endloop
  endfacet
  facet normal 2.22045e-016 1 0
    outer loop
      vertex 75.5 1.55431e-015 17.5
      vertex 75.5 1.55431e-015 19.5
      vertex 80.5 4.44089e-016 17.5
    endloop
  endfacet
  facet normal 2.22045e-016 1 0
    outer loop
      vertex 80.5 4.44089e-016 17.5
      vertex 75.5 1.55431e-015 19.5
      vertex 80.5 4.44089e-016 19.5
    endloop
  endfacet
  facet normal 2.22045e-016 1 0
    outer loop
      vertex 80.5 4.44089e-016 17.5
      vertex 80.5 4.44089e-016 19.5
      vertex 80.5 4.44089e-016 15.5
    endloop
  endfacet
  facet normal -1 2.22045e-016 0
    outer loop
      vertex 75.5 -2 15.5
      vertex 75.5 -2 19.5
      vertex 75.5 0 15.5
    endloop
  endfacet
  facet normal -1 2.22045e-016 0
    outer loop
      vertex 75.5 0 17.5
      vertex 75.5 -2 19.5
      vertex 75.5 1.55431e-015 19.5
    endloop
  endfacet
  facet normal -1 2.22045e-016 0
    outer loop
      vertex 75.5 0 15.5
      vertex 75.5 -2 19.5
      vertex 75.5 0 17.5
    endloop
  endfacet
  facet normal -1 2.22045e-016 0
    outer loop
      vertex 75.5 0 17.5
      vertex 75.5 1.55431e-015 19.5
      vertex 75.5 1.55431e-015 17.5
    endloop
  endfacet
  facet normal 0 -1 0
    outer loop
      vertex 75.5 0 15.5
      vertex 75.5 0 0
      vertex 80.5 0 0
    endloop
  endfacet
  facet normal 0 -1 0
    outer loop
      vertex 75.5 0 17.5
      vertex 75.5 0 0
      vertex 75.5 0 15.5
    endloop
  endfacet
  facet normal 0 -1 0
    outer loop
      vertex 80.5 0 15.5
      vertex 75.5 0 15.5
      vertex 80.5 0 0
    endloop
  endfacet
  facet normal 0 0 -1
    outer loop
      vertex 75.5 -2 15.5
      vertex 75.5 0 15.5
      vertex 82.5 -2 15.5
    endloop
  endfacet
  facet normal 0 0 -1
    outer loop
      vertex 82.5 -2 15.5
      vertex 75.5 0 15.5
      vertex 80.5 0 15.5
    endloop
  endfacet
  facet normal 0 0 -1
    outer loop
      vertex 82.5 -2 15.5
      vertex 80.5 0 15.5
      vertex 80.5 4.44089e-016 15.5
    endloop
  endfacet
  facet normal 0 0 -1
    outer loop
      vertex 82.5 -2 15.5
      vertex 80.5 4.44089e-016 15.5
      vertex 80.5 5 15.5
    endloop
  endfacet
  facet normal 0 0 -1
    outer loop
      vertex 82.5 -2 15.5
      vertex 80.5 5 15.5
      vertex 82.5 5 15.5
    endloop
  endfacet
  facet normal -1 2.22045e-016 0
    outer loop
      vertex 80.5 4.44089e-016 15.5
      vertex 80.5 4.44089e-016 19.5
      vertex 80.5 5 15.5
    endloop
  endfacet
  facet normal -1 2.22045e-016 0
    outer loop
      vertex 80.5 5 15.5
      vertex 80.5 4.44089e-016 19.5
      vertex 80.5 5 19.5
    endloop
  endfacet
  facet normal 0 0 1
    outer loop
      vertex 75.5 1.55431e-015 19.5
      vertex 75.5 -2 19.5
      vertex 82.5 -2 19.5
    endloop
  endfacet
  facet normal 0 0 1
    outer loop
      vertex 80.5 4.44089e-016 19.5
      vertex 75.5 1.55431e-015 19.5
      vertex 82.5 -2 19.5
    endloop
  endfacet
  facet normal 0 0 1
    outer loop
      vertex 82.5 5 19.5
      vertex 80.5 4.44089e-016 19.5
      vertex 82.5 -2 19.5
    endloop
  endfacet
  facet normal 0 0 1
    outer loop
      vertex 80.5 5 19.5
      vertex 80.5 4.44089e-016 19.5
      vertex 82.5 5 19.5
    endloop
  endfacet
  facet normal -2.22045e-016 -1 0
    outer loop
      vertex 75.5 -2 19.5
      vertex 75.5 -2 15.5
      vertex 82.5 -2 15.5
    endloop
  endfacet
  facet normal -2.22045e-016 -1 0
    outer loop
      vertex 82.5 -2 19.5
      vertex 75.5 -2 19.5
      vertex 82.5 -2 15.5
    endloop
  endfacet
  facet normal 1 -2.22045e-016 0
    outer loop
      vertex 82.5 -2 19.5
      vertex 82.5 -2 15.5
      vertex 82.5 5 15.5
    endloop
  endfacet
  facet normal 1 -2.22045e-016 0
    outer loop
      vertex 82.5 5 19.5
      vertex 82.5 -2 19.5
      vertex 82.5 5 15.5
    endloop
  endfacet
  facet normal 2.22045e-016 1 0
    outer loop
      vertex 80.5 5 15.5
      vertex 80.5 5 19.5
      vertex 82.5 5 15.5
    endloop
  endfacet
  facet normal 2.22045e-016 1 0
    outer loop
      vertex 82.5 5 15.5
      vertex 80.5 5 19.5
      vertex 82.5 5 19.5
    endloop
  endfacet
endsolid OpenSCAD_Model
