solid OpenSCAD_Model
  facet normal -1 0 0
    outer loop
      vertex -3 -3 12
      vertex -3 -3 18
      vertex -3 5 12
    endloop
  endfacet
  facet normal -1 0 0
    outer loop
      vertex -3 5 12
      vertex -3 -3 18
      vertex -3 5 18
    endloop
  endfacet
  facet normal 0 -1 0
    outer loop
      vertex -3 -3 18
      vertex -3 -3 12
      vertex 5 -3 12
    endloop
  endfacet
  facet normal 0 -1 0
    outer loop
      vertex 5 -3 18
      vertex -3 -3 18
      vertex 5 -3 12
    endloop
  endfacet
  facet normal 0 -0.707107 -0.707107
    outer loop
      vertex 5 -3 12
      vertex -3 -3 12
      vertex 0 0 9
    endloop
  endfacet
  facet normal 0 -0.707107 -0.707107
    outer loop
      vertex 5 0 9
      vertex 5 -3 12
      vertex 0 0 9
    endloop
  endfacet
  facet normal -0.707107 0 -0.707107
    outer loop
      vertex -3 -3 12
      vertex -3 5 12
      vertex 0 0 9
    endloop
  endfacet
  facet normal -0.707107 0 -0.707107
    outer loop
      vertex 0 0 9
      vertex -3 5 12
      vertex 0 5 9
    endloop
  endfacet
  facet normal 0 1 0
    outer loop
      vertex -3 5 12
      vertex -3 5 18
      vertex 0 5 9
    endloop
  endfacet
  facet normal 0 1 0
    outer loop
      vertex 0 5 15
      vertex -3 5 18
      vertex 0 5 18
    endloop
  endfacet
  facet normal 0 1 0
    outer loop
      vertex 0 5 9
      vertex -3 5 18
      vertex 0 5 15
    endloop
  endfacet
  facet normal 0 0 1
    outer loop
      vertex 0 0 18
      vertex -3 -3 18
      vertex 5 -3 18
    endloop
  endfacet
  facet normal 0 0 1
    outer loop
      vertex 0 0 18
      vertex 0 5 18
      vertex -3 5 18
    endloop
  endfacet
  facet normal 0 0 1
    outer loop
      vertex -3 5 18
      vertex -3 -3 18
      vertex 0 0 18
    endloop
  endfacet
  facet normal 0 0 1
    outer loop
      vertex 5 0 18
      vertex 0 0 18
      vertex 5 -3 18
    endloop
  endfacet
  facet normal 1 0 0
    outer loop
      vertex 5 -3 18
      vertex 5 -3 12
      vertex 5 0 9
    endloop
  endfacet
  facet normal 1 0 0
    outer loop
      vertex 5 0 18
      vertex 5 -3 18
      vertex 5 0 15
    endloop
  endfacet
  facet normal 1 0 0
    outer loop
      vertex 5 0 15
      vertex 5 -3 18
      vertex 5 0 9
    endloop
  endfacet
  facet normal 0.592088 -0.805873 0
    outer loop
      vertex 5 0 9
      vertex 5 0 0
      vertex 96.6 67.3 0
    endloop
  endfacet
  facet normal 0.592088 -0.805873 0
    outer loop
      vertex 5 0 15
      vertex 5 0 9
      vertex 96.6 67.3 15
    endloop
  endfacet
  facet normal 0.592088 -0.805873 0
    outer loop
      vertex 96.6 67.3 15
      vertex 5 0 9
      vertex 96.6 67.3 0
    endloop
  endfacet
  facet normal 0 -1 0
    outer loop
      vertex 0 0 9
      vertex 0 0 0
      vertex 5 0 0
    endloop
  endfacet
  facet normal 0 -1 0
    outer loop
      vertex 5 0 9
      vertex 0 0 9
      vertex 5 0 0
    endloop
  endfacet
  facet normal -1 0 0
    outer loop
      vertex 0 0 0
      vertex 0 0 9
      vertex 0 5 0
    endloop
  endfacet
  facet normal -1 0 0
    outer loop
      vertex 0 5 0
      vertex 0 0 9
      vertex 0 5 9
    endloop
  endfacet
  facet normal -0.592088 0.805873 0
    outer loop
      vertex 0 5 0
      vertex 0 5 9
      vertex 91.6 72.3 0
    endloop
  endfacet
  facet normal -0.592088 0.805873 0
    outer loop
      vertex 91.6 72.3 0
      vertex 0 5 9
      vertex 0 5 15
    endloop
  endfacet
  facet normal -0.592088 0.805873 0
    outer loop
      vertex 91.6 72.3 0
      vertex 0 5 15
      vertex 91.6 72.3 15
    endloop
  endfacet
  facet normal 1 0 0
    outer loop
      vertex 0 5 15
      vertex 0 5 18
      vertex 0 0 18
    endloop
  endfacet
  facet normal 1 0 0
    outer loop
      vertex 0 0 15
      vertex 0 5 15
      vertex 0 0 18
    endloop
  endfacet
  facet normal 0 0 1
    outer loop
      vertex 0 5 15
      vertex 0 0 15
      vertex 5 0 15
    endloop
  endfacet
  facet normal 0 0 1
    outer loop
      vertex 96.6 67.3 15
      vertex 0 5 15
      vertex 5 0 15
    endloop
  endfacet
  facet normal 0 0 1
    outer loop
      vertex 96.6 72.3 15
      vertex 0 5 15
      vertex 96.6 67.3 15
    endloop
  endfacet
  facet normal 0 0 1
    outer loop
      vertex 91.6 72.3 15
      vertex 0 5 15
      vertex 96.6 72.3 15
    endloop
  endfacet
  facet normal 0 1 0
    outer loop
      vertex 5 0 18
      vertex 5 0 15
      vertex 0 0 18
    endloop
  endfacet
  facet normal 0 1 0
    outer loop
      vertex 0 0 18
      vertex 5 0 15
      vertex 0 0 15
    endloop
  endfacet
  facet normal 1 0 0
    outer loop
      vertex 96.6 67.3 9
      vertex 96.6 67.3 0
      vertex 96.6 72.3 0
    endloop
  endfacet
  facet normal 1 0 0
    outer loop
      vertex 96.6 67.3 15
      vertex 96.6 67.3 0
      vertex 96.6 67.3 9
    endloop
  endfacet
  facet normal 1 0 0
    outer loop
      vertex 96.6 72.3 9
      vertex 96.6 67.3 9
      vertex 96.6 72.3 0
    endloop
  endfacet
  facet normal 0 0 -1
    outer loop
      vertex 0 0 0
      vertex 0 5 0
      vertex 5 0 0
    endloop
  endfacet
  facet normal 0 0 -1
    outer loop
      vertex 5 0 0
      vertex 0 5 0
      vertex 91.6 72.3 0
    endloop
  endfacet
  facet normal 0 0 -1
    outer loop
      vertex 5 0 0
      vertex 91.6 72.3 0
      vertex 96.6 72.3 0
    endloop
  endfacet
  facet normal 0 0 -1
    outer loop
      vertex 5 0 0
      vertex 96.6 72.3 0
      vertex 96.6 67.3 0
    endloop
  endfacet
  facet normal 0 1 0
    outer loop
      vertex 91.6 72.3 0
      vertex 91.6 72.3 15
      vertex 96.6 72.3 0
    endloop
  endfacet
  facet normal 0 1 0
    outer loop
      vertex 96.6 72.3 9
      vertex 91.6 72.3 15
      vertex 96.6 72.3 15
    endloop
  endfacet
  facet normal 0 1 0
    outer loop
      vertex 96.6 72.3 0
      vertex 91.6 72.3 15
      vertex 96.6 72.3 9
    endloop
  endfacet
  facet normal -1 1.22461e-016 0
    outer loop
      vertex 96.6 67.3 15
      vertex 96.6 67.3 18
      vertex 96.6 72.3 15
    endloop
  endfacet
  facet normal -1 1.22461e-016 0
    outer loop
      vertex 96.6 72.3 15
      vertex 96.6 67.3 18
      vertex 96.6 72.3 18
    endloop
  endfacet
  facet normal -1 1.22461e-016 0
    outer loop
      vertex 96.6 72.3 15
      vertex 96.6 72.3 18
      vertex 96.6 72.3 9
    endloop
  endfacet
  facet normal -1.22461e-016 -1 0
    outer loop
      vertex 99.6 67.3 12
      vertex 96.6 67.3 18
      vertex 96.6 67.3 15
    endloop
  endfacet
  facet normal -1.22461e-016 -1 0
    outer loop
      vertex 96.6 67.3 9
      vertex 99.6 67.3 12
      vertex 96.6 67.3 15
    endloop
  endfacet
  facet normal -1.22461e-016 -1 0
    outer loop
      vertex 99.6 67.3 12
      vertex 99.6 67.3 18
      vertex 96.6 67.3 18
    endloop
  endfacet
  facet normal 0.707107 -8.65927e-017 -0.707107
    outer loop
      vertex 96.6 72.3 9
      vertex 99.6 75.3 12
      vertex 99.6 67.3 12
    endloop
  endfacet
  facet normal 0.707107 -8.65927e-017 -0.707107
    outer loop
      vertex 96.6 72.3 9
      vertex 99.6 67.3 12
      vertex 96.6 67.3 9
    endloop
  endfacet
  facet normal 8.65927e-017 0.707107 -0.707107
    outer loop
      vertex 91.6 72.3 9
      vertex 91.6 75.3 12
      vertex 96.6 72.3 9
    endloop
  endfacet
  facet normal 8.65927e-017 0.707107 -0.707107
    outer loop
      vertex 96.6 72.3 9
      vertex 91.6 75.3 12
      vertex 99.6 75.3 12
    endloop
  endfacet
  facet normal -1.22461e-016 -1 0
    outer loop
      vertex 91.6 72.3 18
      vertex 91.6 72.3 9
      vertex 96.6 72.3 9
    endloop
  endfacet
  facet normal -1.22461e-016 -1 0
    outer loop
      vertex 96.6 72.3 18
      vertex 91.6 72.3 18
      vertex 96.6 72.3 9
    endloop
  endfacet
  facet normal 0 0 1
    outer loop
      vertex 91.6 75.3 18
      vertex 91.6 72.3 18
      vertex 96.6 72.3 18
    endloop
  endfacet
  facet normal 0 0 1
    outer loop
      vertex 99.6 75.3 18
      vertex 91.6 75.3 18
      vertex 96.6 72.3 18
    endloop
  endfacet
  facet normal 0 0 1
    outer loop
      vertex 96.6 67.3 18
      vertex 99.6 67.3 18
      vertex 96.6 72.3 18
    endloop
  endfacet
  facet normal 0 0 1
    outer loop
      vertex 99.6 67.3 18
      vertex 99.6 75.3 18
      vertex 96.6 72.3 18
    endloop
  endfacet
  facet normal 1 -1.22461e-016 0
    outer loop
      vertex 99.6 67.3 18
      vertex 99.6 67.3 12
      vertex 99.6 75.3 12
    endloop
  endfacet
  facet normal 1 -1.22461e-016 0
    outer loop
      vertex 99.6 75.3 18
      vertex 99.6 67.3 18
      vertex 99.6 75.3 12
    endloop
  endfacet
  facet normal 1.22461e-016 1 0
    outer loop
      vertex 91.6 75.3 12
      vertex 91.6 75.3 18
      vertex 99.6 75.3 12
    endloop
  endfacet
  facet normal 1.22461e-016 1 0
    outer loop
      vertex 99.6 75.3 12
      vertex 91.6 75.3 18
      vertex 99.6 75.3 18
    endloop
  endfacet
  facet normal -1 1.22461e-016 0
    outer loop
      vertex 91.6 72.3 9
      vertex 91.6 72.3 18
      vertex 91.6 75.3 12
    endloop
  endfacet
  facet normal -1 1.22461e-016 0
    outer loop
      vertex 91.6 75.3 12
      vertex 91.6 72.3 18
      vertex 91.6 75.3 18
    endloop
  endfacet
  facet normal -1 2.22045e-016 0
    outer loop
      vertex -3 67.3 12
      vertex -3 67.3 18
      vertex -3 75.3 12
    endloop
  endfacet
  facet normal -1 2.22045e-016 0
    outer loop
      vertex -3 75.3 12
      vertex -3 67.3 18
      vertex -3 75.3 18
    endloop
  endfacet
  facet normal -2.22045e-016 -1 0
    outer loop
      vertex -3 67.3 18
      vertex -3 67.3 12
      vertex -1.77636e-015 67.3 9
    endloop
  endfacet
  facet normal -2.22045e-016 -1 0
    outer loop
      vertex -1.77636e-015 67.3 18
      vertex -3 67.3 18
      vertex -1.77636e-015 67.3 9
    endloop
  endfacet
  facet normal -0.707107 1.57009e-016 -0.707107
    outer loop
      vertex -3 67.3 12
      vertex -3 75.3 12
      vertex -1.77636e-015 67.3 9
    endloop
  endfacet
  facet normal -0.707107 1.57009e-016 -0.707107
    outer loop
      vertex -1.77636e-015 67.3 9
      vertex -3 75.3 12
      vertex -6.66134e-016 72.3 9
    endloop
  endfacet
  facet normal 2.22045e-016 1 0
    outer loop
      vertex -3 75.3 12
      vertex -3 75.3 18
      vertex 5 75.3 12
    endloop
  endfacet
  facet normal 2.22045e-016 1 0
    outer loop
      vertex 5 75.3 12
      vertex -3 75.3 18
      vertex 5 75.3 18
    endloop
  endfacet
  facet normal 1.57009e-016 0.707107 -0.707107
    outer loop
      vertex -3 75.3 12
      vertex 5 75.3 12
      vertex 0 72.3 9
    endloop
  endfacet
  facet normal 1.57009e-016 0.707107 -0.707107
    outer loop
      vertex -3 75.3 12
      vertex 0 72.3 9
      vertex -6.66134e-016 72.3 9
    endloop
  endfacet
  facet normal 1.57009e-016 0.707107 -0.707107
    outer loop
      vertex 0 72.3 9
      vertex 5 75.3 12
      vertex 5 72.3 9
    endloop
  endfacet
  facet normal 0 0 1
    outer loop
      vertex -3 75.3 18
      vertex -3 67.3 18
      vertex -1.77636e-015 67.3 18
    endloop
  endfacet
  facet normal 0 0 1
    outer loop
      vertex 5 72.3 18
      vertex -3 75.3 18
      vertex -6.66134e-016 72.3 18
    endloop
  endfacet
  facet normal 0 0 1
    outer loop
      vertex -6.66134e-016 72.3 18
      vertex -3 75.3 18
      vertex -1.77636e-015 67.3 18
    endloop
  endfacet
  facet normal 0 0 1
    outer loop
      vertex 5 75.3 18
      vertex -3 75.3 18
      vertex 5 72.3 18
    endloop
  endfacet
  facet normal 1 -2.22045e-016 0
    outer loop
      vertex -1.77636e-015 67.3 18
      vertex -1.77636e-015 67.3 9
      vertex -6.66134e-016 72.3 9
    endloop
  endfacet
  facet normal 1 -2.22045e-016 0
    outer loop
      vertex -6.66134e-016 72.3 18
      vertex -1.77636e-015 67.3 18
      vertex -6.66134e-016 72.3 9
    endloop
  endfacet
  facet normal -2.22045e-016 -1 0
    outer loop
      vertex -6.66134e-016 72.3 18
      vertex -6.66134e-016 72.3 9
      vertex 0 72.3 9
    endloop
  endfacet
  facet normal -2.22045e-016 -1 0
    outer loop
      vertex 5 72.3 15
      vertex -6.66134e-016 72.3 18
      vertex 0 72.3 15
    endloop
  endfacet
  facet normal -2.22045e-016 -1 0
    outer loop
      vertex 0 72.3 15
      vertex -6.66134e-016 72.3 18
      vertex 0 72.3 9
    endloop
  endfacet
  facet normal -2.22045e-016 -1 0
    outer loop
      vertex 5 72.3 18
      vertex -6.66134e-016 72.3 18
      vertex 5 72.3 15
    endloop
  endfacet
  facet normal 1 -2.22045e-016 0
    outer loop
      vertex 5 75.3 12
      vertex 5 72.3 18
      vertex 5 72.3 15
    endloop
  endfacet
  facet normal 1 -2.22045e-016 0
    outer loop
      vertex 5 72.3 9
      vertex 5 75.3 12
      vertex 5 72.3 15
    endloop
  endfacet
  facet normal 1 -2.22045e-016 0
    outer loop
      vertex 5 75.3 12
      vertex 5 75.3 18
      vertex 5 72.3 18
    endloop
  endfacet
  facet normal -1 0 0
    outer loop
      vertex 0 67.3 0
      vertex 0 67.3 15
      vertex 0 72.3 0
    endloop
  endfacet
  facet normal -1 0 0
    outer loop
      vertex 0 72.3 9
      vertex 0 67.3 15
      vertex 0 72.3 15
    endloop
  endfacet
  facet normal -1 0 0
    outer loop
      vertex 0 72.3 0
      vertex 0 67.3 15
      vertex 0 72.3 9
    endloop
  endfacet
  facet normal 0 1 0
    outer loop
      vertex 0 72.3 0
      vertex 0 72.3 9
      vertex 5 72.3 0
    endloop
  endfacet
  facet normal 0 1 0
    outer loop
      vertex 5 72.3 0
      vertex 0 72.3 9
      vertex 5 72.3 9
    endloop
  endfacet
  facet normal 0 1 0
    outer loop
      vertex 5 72.3 0
      vertex 5 72.3 9
      vertex 5 72.3 15
    endloop
  endfacet
  facet normal 0 0 1
    outer loop
      vertex 0 72.3 15
      vertex 0 67.3 15
      vertex 91.6 0 15
    endloop
  endfacet
  facet normal 0 0 1
    outer loop
      vertex 91.6 1.77636e-015 15
      vertex 0 72.3 15
      vertex 91.6 0 15
    endloop
  endfacet
  facet normal 0 0 1
    outer loop
      vertex 96.6 6.66134e-016 15
      vertex 0 72.3 15
      vertex 91.6 1.77636e-015 15
    endloop
  endfacet
  facet normal 0 0 1
    outer loop
      vertex 96.6 5 15
      vertex 0 72.3 15
      vertex 96.6 6.66134e-016 15
    endloop
  endfacet
  facet normal 0 0 1
    outer loop
      vertex 5 72.3 15
      vertex 0 72.3 15
      vertex 96.6 5 15
    endloop
  endfacet
  facet normal 0 0 -1
    outer loop
      vertex 0 67.3 0
      vertex 0 72.3 0
      vertex 91.6 0 0
    endloop
  endfacet
  facet normal 0 0 -1
    outer loop
      vertex 91.6 0 0
      vertex 0 72.3 0
      vertex 5 72.3 0
    endloop
  endfacet
  facet normal 0 0 -1
    outer loop
      vertex 91.6 0 0
      vertex 5 72.3 0
      vertex 96.6 5 0
    endloop
  endfacet
  facet normal 0 0 -1
    outer loop
      vertex 91.6 0 0
      vertex 96.6 5 0
      vertex 96.6 0 0
    endloop
  endfacet
  facet normal -0.592088 -0.805873 0
    outer loop
      vertex 0 67.3 15
      vertex 0 67.3 0
      vertex 91.6 0 0
    endloop
  endfacet
  facet normal -0.592088 -0.805873 0
    outer loop
      vertex 91.6 0 15
      vertex 0 67.3 15
      vertex 91.6 0 0
    endloop
  endfacet
  facet normal 0.592088 0.805873 0
    outer loop
      vertex 5 72.3 0
      vertex 5 72.3 15
      vertex 96.6 5 0
    endloop
  endfacet
  facet normal 0.592088 0.805873 0
    outer loop
      vertex 96.6 5 0
      vertex 5 72.3 15
      vertex 96.6 5 15
    endloop
  endfacet
  facet normal 1 0 0
    outer loop
      vertex 96.6 0 9
      vertex 96.6 0 0
      vertex 96.6 5 0
    endloop
  endfacet
  facet normal 1 0 0
    outer loop
      vertex 96.6 6.66134e-016 9
      vertex 96.6 0 9
      vertex 96.6 5 0
    endloop
  endfacet
  facet normal 1 0 0
    outer loop
      vertex 96.6 5 15
      vertex 96.6 6.66134e-016 9
      vertex 96.6 5 0
    endloop
  endfacet
  facet normal 1 0 0
    outer loop
      vertex 96.6 6.66134e-016 15
      vertex 96.6 6.66134e-016 9
      vertex 96.6 5 15
    endloop
  endfacet
  facet normal 2.22045e-016 1 0
    outer loop
      vertex 91.6 1.77636e-015 15
      vertex 91.6 1.77636e-015 18
      vertex 96.6 6.66134e-016 15
    endloop
  endfacet
  facet normal 2.22045e-016 1 0
    outer loop
      vertex 96.6 6.66134e-016 15
      vertex 91.6 1.77636e-015 18
      vertex 96.6 6.66134e-016 18
    endloop
  endfacet
  facet normal 2.22045e-016 1 0
    outer loop
      vertex 96.6 6.66134e-016 15
      vertex 96.6 6.66134e-016 18
      vertex 96.6 6.66134e-016 9
    endloop
  endfacet
  facet normal -1 2.22045e-016 0
    outer loop
      vertex 91.6 -3 12
      vertex 91.6 -3 18
      vertex 91.6 0 9
    endloop
  endfacet
  facet normal -1 2.22045e-016 0
    outer loop
      vertex 91.6 0 15
      vertex 91.6 -3 18
      vertex 91.6 1.77636e-015 18
    endloop
  endfacet
  facet normal -1 2.22045e-016 0
    outer loop
      vertex 91.6 0 9
      vertex 91.6 -3 18
      vertex 91.6 0 15
    endloop
  endfacet
  facet normal -1 2.22045e-016 0
    outer loop
      vertex 91.6 0 15
      vertex 91.6 1.77636e-015 18
      vertex 91.6 1.77636e-015 15
    endloop
  endfacet
  facet normal 0 -1 0
    outer loop
      vertex 91.6 0 9
      vertex 91.6 0 0
      vertex 96.6 0 0
    endloop
  endfacet
  facet normal 0 -1 0
    outer loop
      vertex 91.6 0 15
      vertex 91.6 0 0
      vertex 91.6 0 9
    endloop
  endfacet
  facet normal 0 -1 0
    outer loop
      vertex 96.6 0 9
      vertex 91.6 0 9
      vertex 96.6 0 0
    endloop
  endfacet
  facet normal -1.57009e-016 -0.707107 -0.707107
    outer loop
      vertex 91.6 -3 12
      vertex 91.6 0 9
      vertex 99.6 -3 12
    endloop
  endfacet
  facet normal -1.57009e-016 -0.707107 -0.707107
    outer loop
      vertex 99.6 -3 12
      vertex 91.6 0 9
      vertex 96.6 0 9
    endloop
  endfacet
  facet normal -1.57009e-016 -0.707107 -0.707107
    outer loop
      vertex 99.6 -3 12
      vertex 96.6 0 9
      vertex 96.6 6.66134e-016 9
    endloop
  endfacet
  facet normal 0.707107 -1.57009e-016 -0.707107
    outer loop
      vertex 96.6 6.66134e-016 9
      vertex 96.6 5 9
      vertex 99.6 -3 12
    endloop
  endfacet
  facet normal 0.707107 -1.57009e-016 -0.707107
    outer loop
      vertex 99.6 -3 12
      vertex 96.6 5 9
      vertex 99.6 5 12
    endloop
  endfacet
  facet normal -1 2.22045e-016 0
    outer loop
      vertex 96.6 6.66134e-016 9
      vertex 96.6 6.66134e-016 18
      vertex 96.6 5 9
    endloop
  endfacet
  facet normal -1 2.22045e-016 0
    outer loop
      vertex 96.6 5 9
      vertex 96.6 6.66134e-016 18
      vertex 96.6 5 18
    endloop
  endfacet
  facet normal 0 0 1
    outer loop
      vertex 91.6 1.77636e-015 18
      vertex 91.6 -3 18
      vertex 99.6 -3 18
    endloop
  endfacet
  facet normal 0 0 1
    outer loop
      vertex 96.6 6.66134e-016 18
      vertex 91.6 1.77636e-015 18
      vertex 99.6 -3 18
    endloop
  endfacet
  facet normal 0 0 1
    outer loop
      vertex 99.6 5 18
      vertex 96.6 6.66134e-016 18
      vertex 99.6 -3 18
    endloop
  endfacet
  facet normal 0 0 1
    outer loop
      vertex 96.6 5 18
      vertex 96.6 6.66134e-016 18
      vertex 99.6 5 18
    endloop
  endfacet
  facet normal -2.22045e-016 -1 0
    outer loop
      vertex 91.6 -3 18
      vertex 91.6 -3 12
      vertex 99.6 -3 12
    endloop
  endfacet
  facet normal -2.22045e-016 -1 0
    outer loop
      vertex 99.6 -3 18
      vertex 91.6 -3 18
      vertex 99.6 -3 12
    endloop
  endfacet
  facet normal 1 -2.22045e-016 0
    outer loop
      vertex 99.6 -3 18
      vertex 99.6 -3 12
      vertex 99.6 5 12
    endloop
  endfacet
  facet normal 1 -2.22045e-016 0
    outer loop
      vertex 99.6 5 18
      vertex 99.6 -3 18
      vertex 99.6 5 12
    endloop
  endfacet
  facet normal 2.22045e-016 1 0
    outer loop
      vertex 96.6 5 9
      vertex 96.6 5 18
      vertex 99.6 5 12
    endloop
  endfacet
  facet normal 2.22045e-016 1 0
    outer loop
      vertex 99.6 5 12
      vertex 96.6 5 18
      vertex 99.6 5 18
    endloop
  endfacet
endsolid OpenSCAD_Model
